<?xml version="1.0" encoding="utf-8"?>
<!-- Generator: Adobe Illustrator 24.0.1, SVG Export Plug-In . SVG Version: 6.00 Build 0)  -->
<svg version="1.1" id="Livello_1" xmlns="http://www.w3.org/2000/svg" xmlns:xlink="http://www.w3.org/1999/xlink" x="0px" y="0px"
	 viewBox="0 0 176.98 94.55" style="enable-background:new 0 0 176.98 94.55;" xml:space="preserve">
<style type="text/css">
	.st0{fill:#FF0000;}
</style>
<g>
	<path class="st0" d="M108.95,62.51c-3.51,0-6.25,2.75-6.25,6.25c0,3.96,3.18,6.32,6.25,6.32c3.84,0,6.32-2.48,6.32-6.32
		C115.27,65.19,112.56,62.51,108.95,62.51z"/>
	<path class="st0" d="M110.14,19.2c-8.72,0-14.58,6.79-14.58,13.13c0,3.47,2.52,5.99,5.99,5.99c3.28,0,5.86-2.6,5.86-5.92
		c0-0.18-0.01-0.35-0.04-0.52l-0.11-0.68c-0.09-0.62-0.15-0.94-0.29-1.66c0.17-0.82,1.27-1.85,3.9-1.85c3.14,0,6.31,1.62,6.31,5.25
		c0,4.84-2.71,7.07-9.34,7.71c-1.72,0.17-3.02,1.61-3.02,3.33v11.57c0,1.85,1.5,3.34,3.34,3.34h1.79c1.85,0,3.34-1.5,3.34-3.34
		v-5.72c6.89-1.77,13.36-6.46,13.36-15.17C126.64,23.24,117.75,19.2,110.14,19.2z"/>
</g>
<path class="st0" d="M79.29,18.34l-18.11-0.07l0.01-0.01h-2.38c-2.14,0-3.33,0.95-3.33,3.02v3.41l0,0v43.19l0,0v3.41
	c0,2.06,1.19,3.02,3.33,3.02h2.38l0,0l0,0h18.1c7.86,0,11.83-3.81,11.83-11.67V30.01C91.12,22.15,87.15,18.34,79.29,18.34z
	 M75.72,57.96c0,1.98-0.87,2.78-2.54,2.78h-2.3V31.92h2.3c1.67,0,2.54,0.79,2.54,2.78V57.96z"/>
<g>
	<path class="st0" d="M88.49,94.55c-23.32,0-45.29-4.73-61.86-13.32C9.46,72.32,0,60.26,0,47.27s9.46-25.05,26.63-33.95
		C43.2,4.73,65.17,0,88.49,0s45.29,4.73,61.86,13.32c17.17,8.9,26.63,20.96,26.63,33.95s-9.46,25.05-26.63,33.95
		C133.78,89.82,111.81,94.55,88.49,94.55z M88.49,5.78c-22.41,0-43.43,4.5-59.2,12.68C14.13,26.32,5.78,36.55,5.78,47.27
		s8.35,20.96,23.51,28.82c15.76,8.17,36.79,12.68,59.2,12.68s43.43-4.5,59.2-12.68c15.16-7.86,23.51-18.1,23.51-28.82
		s-8.35-20.96-23.51-28.82C131.93,10.28,110.9,5.78,88.49,5.78z"/>
</g>
</svg>
